<?xml version="1.0" encoding="UTF-8" standalone="no"?>
<svg width="98px" height="90px" viewBox="0 0 98 90" version="1.1" xmlns="http://www.w3.org/2000/svg" xmlns:xlink="http://www.w3.org/1999/xlink" xmlns:sketch="http://www.bohemiancoding.com/sketch/ns">
    <!-- Generator: Sketch 3.2 (9961) - http://www.bohemiancoding.com/sketch -->
    <title>icon-green-phone</title>
    <desc>Created with Sketch.</desc>
    <defs></defs>
    <g id="mobile" stroke="none" stroke-width="1" fill="none" fill-rule="evenodd" sketch:type="MSPage">
        <g id="icon-green-phone" sketch:type="MSArtboardGroup" fill="#8BC249">
            <path d="M98,70.1408169 C98,68.8511758 97.0233789,66.818893 96.348878,66.2130012 C93.0576749,63.256409 86.9630774,62.0186729 80.4469169,58.3953004 C73.9237303,54.7709296 73.3496015,55.9138392 72.2003403,56.4847948 C71.0430493,57.0557505 66.0786424,64.7666467 63.6917924,67.231139 C62.1751691,68.8012671 59.9940821,68.5696906 59.1589857,68.3191489 C40.4124777,62.2512476 25.4168772,38.7432455 25.4168772,38.7432455 C23.6844537,37.0293803 25.4168772,35.13784 25.4168772,35.13784 C28.7361844,31.7650092 30.2076403,30.2298172 32.1197299,27.6944545 C35.5745396,23.1068456 25.6035694,6.1508594 24.2676159,2.52648865 C22.9206216,-1.09688393 15.6336028,0.241667758 15.6336028,0.241667758 C1.38577492,2.40171686 -2.06100501,21.1604058 1.06257657,28.4620505 C20.1603872,73.2052119 65.4212047,102.739192 90.7611599,84.5504606 C90.7611599,84.5504606 90.7611599,84.5504606 90.7611599,84.5514588 C90.7601562,84.5514588 98,80.6735518 98,70.1408169 L98,70.1408169 Z" id="Shape-3" sketch:type="MSShapeGroup"></path>
        </g>
    </g>
</svg>